<svg xmlns="http://www.w3.org/2000/svg" viewBox="0 0 182.09 46.45">
					<path fill="#cacaca" d="M160.58 1.1c0-.8-.2-1.1-.5-1.1s-.5.3-.6.7l-12 25.7L135 .6q-.3-.6-.6-.6c-.2 0-.4.3-.5.7L131 27.4c-.2 1.6-.3 3.1-1.6 3.4a4.87 4.87 0 0 1-1.2.1c-.2 0-.4.1-.4.2 0 .3.3.4.7.4 1.1 0 3.1-.1 3.4-.1s2.3.1 3.8.1c.5 0 .7-.1.7-.4 0-.1-.2-.2-.3-.2a8.75 8.75 0 0 1-1.6-.2 1.38 1.38 0 0 1-1.1-1.3v-2.1l1.6-19h.2c.5 1.1 5 10.9 5.4 11.7.2.4 3.7 7.5 4.8 9.5.8 1.5 1 1.9 1.3 1.9s.5-.4 1.3-2.2l10-21.3h.1l2 21.2c.1.7 0 1.4-.2 1.5s-.3.1-.3.2v.1c0 .2.2.3 1.1.4 1.5.1 5.9.2 6.8.2.5 0 .9-.1.9-.4s-.1-.2-.3-.2a8.42 8.42 0 0 1-2.7-.4c-1.8-.6-2-2.9-2.2-4.3Zm-55.2 1.5a.55.55 0 0 1 .3-.5 24.52 24.52 0 0 1 2.7-.2c4.4 0 7.1 3.1 7.1 8.2 0 3.1-1.1 5.3-2.5 6.3a4.83 4.83 0 0 1-3.1.8 10.52 10.52 0 0 1-4.3-.7.76.76 0 0 1-.2-.5Zm-3.3 17c0 3.9 0 7.2-.2 8.9-.2 1.2-.4 2.1-1.2 2.2a5 5 0 0 1-1.2.2c-.2 0-.3.1-.3.2s.2.3.7.3c1.2 0 3.8-.1 3.8-.1.2 0 2.8.1 5 .1.5 0 .7-.1.7-.3s-.1-.2-.3-.2a11 11 0 0 1-1.8-.2c-1.2-.2-1.5-1.1-1.6-2.2a66.2 66.2 0 0 1-.3-8.9v-1c0-.1.1-.3.2-.3h.1l5 .1a.76.76 0 0 1 .5.2c.8 1.1 2.7 3.8 4.5 6.1 2.3 3.1 3.8 5.1 5.5 6 1.1.6 2.1.8 4.4.8h2.9c.7 0 1-.1 1-.3s-.2-.2-.4-.2a8.6 8.6 0 0 1-1.6-.1 9.13 9.13 0 0 1-5-2.9c-2.4-2.5-5.2-6.2-8.5-10.5 3.7-3.4 4.9-6.4 4.9-9.4a7.64 7.64 0 0 0-2.8-5.6c-2.2-1.6-4.9-1.8-7.5-1.8-1.3 0-4.4.1-4.8.1-.2 0-2.8-.1-4.6-.1-.5 0-.7.1-.7.3s.2.2.3.2a6.6 6.6 0 0 1 1.4.1c1.3.3 1.7.9 1.8 2.3s.1 2.5.1 8.8Zm-36.3-1.2c0 6 1.6 8.8 3.6 10.8 2.9 2.7 7 2.9 8.4 2.9a12.22 12.22 0 0 0 8.4-3c3.3-2.9 3.8-7.8 3.8-12.2v-4.4c0-6.4 0-7.5.1-8.8s.4-2.1 1.5-2.3a3.4 3.4 0 0 1 1-.1c.2 0 .3-.1.3-.2s-.2-.3-.7-.3c-1.2 0-3.1.1-3.4.1s-2.5-.1-4.3-.1c-.5 0-.7.1-.7.3s.2.2.3.2a6.6 6.6 0 0 1 1.4.1c1.3.3 1.7.9 1.8 2.3.1 1.2.1 2.4.1 8.7v5.1c0 4.2-.5 7.7-2.4 10a9.07 9.07 0 0 1-12.6.7c-1.7-1.6-3-4.2-3-10v-5.7c0-6.4 0-7.5.1-8.8s.4-2.2 1.5-2.3a3.4 3.4 0 0 1 1-.1c.2 0 .3-.1.3-.2s-.2-.3-.7-.3c-1.2 0-3.7.1-4 .1s-2.9-.1-4.7-.1c-.4 0-.7.1-.7.3s.2.2.3.2a6.6 6.6 0 0 1 1.4.1c1.3.3 1.7.9 1.8 2.3s.1 2.5.1 8.8v5.9ZM48.58 2.3l5.1.1c3.9.1 4.9 1 5 2.2v.5c0 .6.1.7.3.7s.3-.2.3-.5c0-.5.1-3.3.1-4.5 0-.2 0-.5-.2-.5s-.5.1-1.2.2a28.25 28.25 0 0 1-2.9.2H40c-.5 0-2-.1-3.2-.2A12.09 12.09 0 0 1 35 0c-.2 0-.3.5-.4.8s-.9 3.8-.9 4.3c0 .2.1.4.2.4s.3-.1.4-.4a5.39 5.39 0 0 1 .7-1.3c.7-1 1.6-1.3 4.2-1.3l6.1-.1v17.3c0 3.9 0 7.2-.2 8.9-.2 1.2-.4 2.1-1.2 2.2a5 5 0 0 1-1.2.2c-.2 0-.3.1-.3.2s.2.3.7.3c1.2 0 3.8-.1 4-.1s2.8.1 5 .1c.5 0 .7-.1.7-.3s-.1-.2-.3-.2a11 11 0 0 1-1.8-.2c-1.2-.2-1.5-1.1-1.6-2.2-.2-1.7-.2-4.9-.2-8.9V2.3Zm-29.1 29.8a10.58 10.58 0 0 0 6.2-1.7 8.39 8.39 0 0 0 3.5-6.8c0-3.3-1.1-5.8-6-9.6L22 13c-3.9-3.1-5-4.5-5-6.9 0-3 2.2-4.7 5-4.7 3.8 0 4.9 1.7 5.1 2.2a6.53 6.53 0 0 1 .5 2c0 .3.1.5.3.5s.3-.3.3-.9c0-1.4.1-2.9.2-4.3 0-.2-.1-.3-.4-.3a6.75 6.75 0 0 1-1.4-.2 15.81 15.81 0 0 0-3.8-.4c-5.1 0-8.4 3-8.4 7.4 0 2.8 1 5.3 5.3 8.9l1.8 1.5c3.5 2.9 4.7 4.5 4.7 7.4a5.38 5.38 0 0 1-5.4 5.4h-.4c-2.7 0-5.4-1.1-6.1-4.2a7.57 7.57 0 0 1-.1-1.5c0-.3 0-.5-.3-.5s-.3.2-.3.7c0 .7-.2 2.3-.2 4.3 0 1.1 0 1.3.6 1.6a13.51 13.51 0 0 0 5.48 1.1Z"></path>
					<path fill="#c8a16e" d="M.87 41.65v-2.16c0-.32-.1-.5-.43-.57a1.87 1.87 0 0 0-.34 0s-.08 0-.08-.06.05-.08.16-.08h2.39a2.44 2.44 0 0 1 1.86.57 1.82 1.82 0 0 1 .5 1.31 2.3 2.3 0 0 1-2.46 2.26h-.23c-.05 0-.11 0-.11-.07s.06-.09.27-.09A1.65 1.65 0 0 0 4.13 41a2.06 2.06 0 0 0-.56-1.46 1.74 1.74 0 0 0-1.37-.5 1.23 1.23 0 0 0-.43.06c-.06 0-.08.09-.08.19v4.11c0 1 0 1.75.05 2.17s.09.51.39.55h.45c.06 0 .08 0 .08.06s-.05.08-.16.08H.27c-.11 0-.16 0-.16-.08s0-.06.08-.06a1.54 1.54 0 0 0 .3 0c.2 0 .25-.26.29-.55s.05-1.21.05-2.17Zm15.35.27a.05.05 0 0 0 .06-.06v-2.37c0-.32-.1-.5-.43-.57a1.87 1.87 0 0 0-.34 0s-.08 0-.08-.06.05-.08.16-.08h2.13c.11 0 .16 0 .16.08s0 .06-.08.06h-.25c-.27 0-.35.22-.37.57s0 .6 0 2.16v1.76c0 1 0 1.75.05 2.17s.09.51.39.55h.45c.06 0 .08 0 .08.06s-.05.08-.16.08h-2.23c-.11 0-.16 0-.16-.08s0-.06.08-.06a1.54 1.54 0 0 0 .3 0c.2 0 .25-.26.29-.55s.05-1.21.05-2.17v-1a.06.06 0 0 0-.06-.06H12a.05.05 0 0 0-.06.06v1c0 1 0 1.75.05 2.17s.09.51.39.55h.45c.06 0 .08 0 .08.06s-.05.08-.16.08h-2.23c-.11 0-.16 0-.16-.08s0-.06.08-.06a1.54 1.54 0 0 0 .3 0c.2 0 .25-.26.29-.55s.05-1.21.05-2.17v-3.92c0-.32-.1-.5-.43-.57a1.87 1.87 0 0 0-.34 0s-.08 0-.08-.06 0-.08.16-.08h2.13c.11 0 .16 0 .16.08s0 .06-.08.06h-.25c-.27 0-.35.22-.37.57s0 .6 0 2.16v.21a.05.05 0 0 0 .06.06Zm8.44-.27v-2.16c0-.32-.12-.51-.34-.56a1.31 1.31 0 0 0-.31 0s-.08 0-.08-.06.05-.08.16-.08h2c.11 0 .16 0 .16.08s0 .06-.08.06h-.25c-.27 0-.35.22-.37.57s0 .6 0 2.16v1.76c0 1 0 1.75.05 2.17s.09.51.39.55h.41c.09 0 .12 0 .12.06s0 .08-.15.08h-2.24c-.11 0-.16 0-.16-.08s0-.06.11-.06h.26c.2 0 .26-.27.3-.56s.05-1.21.05-2.17Zm9.24 1.78c0 1.47 0 2.11.22 2.29s.42.23 1.2.23c.53 0 1 0 1.21-.3a1.39 1.39 0 0 0 .26-.6c0-.08 0-.13.09-.13s.06 0 .06.15a6.38 6.38 0 0 1-.15 1c-.07.23-.1.27-.63.27-.86 0-1.71-.06-2.68-.06h-1c-.11 0-.16 0-.16-.08s0-.06.08-.06a1.54 1.54 0 0 0 .3 0c.2 0 .25-.26.29-.55s.05-1.21.05-2.17v-3.93c0-.32-.1-.5-.43-.57a1.87 1.87 0 0 0-.34 0s-.08 0-.08-.06.05-.08.16-.08h2.21c.11 0 .16 0 .16.08s0 .06-.08.06h-.33c-.29 0-.37.22-.39.57s0 .6 0 2.16Zm7.87-.91a3.87 3.87 0 0 1 3.94-3.91 3.64 3.64 0 0 1 3.93 3.75 3.93 3.93 0 0 1-4 4.09 3.75 3.75 0 0 1-3.87-3.93Zm6.91.12c0-2.4-1.46-3.69-3-3.69s-2.92 1.1-2.92 3.29 1.4 3.83 3.2 3.83c.86 0 2.72-.52 2.72-3.43Zm6.74 3.54c-.14-.07-.15-.11-.15-.38v-1.06c0-.16 0-.16.08-.16s.07 0 .07.11a1.76 1.76 0 0 0 0 .37 1.36 1.36 0 0 0 1.48 1 1.33 1.33 0 0 0 1.43-1.33c0-.69-.29-1.09-1.15-1.8l-.45-.37c-1.06-.87-1.3-1.49-1.3-2.17a1.83 1.83 0 0 1 2.07-1.8 3.88 3.88 0 0 1 .93.1 1.64 1.64 0 0 0 .35 0c.08 0 .1 0 .1.07v1.06c0 .16 0 .23-.07.23s-.07 0-.08-.13a1.76 1.76 0 0 0-.13-.5c-.06-.11-.33-.53-1.25-.53a1.14 1.14 0 0 0-1.23 1.16c0 .57.26.93 1.22 1.68l.28.22c1.18.93 1.46 1.55 1.46 2.35a2.07 2.07 0 0 1-.81 1.7 2.63 2.63 0 0 1-1.51.42 3 3 0 0 1-1.34-.24Zm9.2-3.66a3.87 3.87 0 0 1 3.94-3.91 3.64 3.64 0 0 1 3.93 3.75 3.93 3.93 0 0 1-4 4.09 3.75 3.75 0 0 1-3.87-3.93Zm6.91.12c0-2.4-1.46-3.69-3-3.69s-2.92 1.1-2.92 3.29 1.4 3.83 3.2 3.83c.86 0 2.72-.52 2.72-3.43Zm7.23-.99v-2.16c0-.32-.1-.5-.43-.57a1.87 1.87 0 0 0-.34 0s-.08 0-.08-.06 0-.08.16-.08h2.39a2.44 2.44 0 0 1 1.86.57 1.82 1.82 0 0 1 .5 1.31 2.3 2.3 0 0 1-2.46 2.26h-.21s-.11 0-.11-.07.06-.09.27-.09A1.65 1.65 0 0 0 82 41a2.06 2.06 0 0 0-.56-1.46 1.74 1.74 0 0 0-1.37-.5 1.23 1.23 0 0 0-.43.06c-.06 0-.08.09-.08.19v6.28c0 .42.09.51.39.55h.45c.06 0 .08 0 .08.06s0 .08-.16.08h-2.23c-.11 0-.16 0-.16-.08s0-.06.08-.06a1.54 1.54 0 0 0 .3 0c.2 0 .25-.26.29-.55s.05-1.21.05-2.17Zm15.35.27a.05.05 0 0 0 .06-.06v-2.37c0-.32-.1-.5-.43-.57a1.87 1.87 0 0 0-.34 0s-.08 0-.08-.06 0-.08.16-.08h2.13c.11 0 .16 0 .16.08s0 .06-.08.06h-.25c-.27 0-.35.22-.37.57s0 .6 0 2.16v3.93c0 .42.09.51.39.55h.45c.06 0 .08 0 .08.06s0 .08-.16.08H93.6c-.11 0-.16 0-.16-.08s0-.06.08-.06a1.54 1.54 0 0 0 .3 0c.2 0 .25-.26.29-.55s0-1.21 0-2.17v-1a.06.06 0 0 0-.06-.06h-4.18a.05.05 0 0 0-.06.06v3.17c0 .42.09.51.39.55h.45c.06 0 .08 0 .08.06s0 .08-.16.08h-2.23c-.11 0-.16 0-.16-.08s0-.06.08-.06a1.54 1.54 0 0 0 .3 0c.2 0 .25-.26.29-.55s0-1.21 0-2.17v-3.92c0-.32-.1-.5-.43-.57a1.87 1.87 0 0 0-.34 0s-.08 0-.08-.06.05-.08.16-.08h2.13c.11 0 .16 0 .16.08s0 .06-.08.06h-.25c-.27 0-.35.22-.37.57s0 .6 0 2.16v.21a.05.05 0 0 0 .06.06Zm9.55 1.8a2.12 2.12 0 0 0-.23-1c-.07-.16-1.41-2.36-1.76-2.88a2.8 2.8 0 0 0-.68-.74 1 1 0 0 0-.43-.16s-.1 0-.1-.07 0-.07.13-.07h1.84c.11 0 .13 0 .13.07s-.06 0-.15.09a.2.2 0 0 0-.13.18.85.85 0 0 0 .13.39c.16.29 1.66 2.87 1.84 3.16.19-.42 1.46-2.61 1.66-2.94a1 1 0 0 0 .17-.51c0-.14 0-.25-.16-.28s-.15 0-.15-.1.06-.06.16-.06h1.66c.07 0 .13 0 .13.06s-.05.08-.13.08a1 1 0 0 0-.46.14 1.9 1.9 0 0 0-.53.51 31.87 31.87 0 0 0-1.91 3.18 2.39 2.39 0 0 0-.15 1v1.86c0 .42.11.51.41.55h.45c.06 0 .08 0 .08.06s0 .08-.16.08h-2.23c-.11 0-.16 0-.16-.08s0-.06.08-.06a1.54 1.54 0 0 0 .3 0c.2 0 .29-.26.31-.55s0-.84 0-1Zm15.54-1.2a3.87 3.87 0 0 1 3.94-3.91 3.64 3.64 0 0 1 3.93 3.75 3.93 3.93 0 0 1-4 4.09 3.75 3.75 0 0 1-3.87-3.93Zm6.91.12c0-2.4-1.46-3.69-3-3.69s-2.92 1.1-2.92 3.29 1.4 3.83 3.2 3.83c.86 0 2.72-.52 2.72-3.43Zm7.23-.99v-2.16c0-.32-.1-.5-.43-.57h-.25c-.09 0-.17 0-.17-.07s.05-.08.16-.08h3.59a1.35 1.35 0 0 0 .49-.06h.09s.06 0 .06.09 0 .19-.06.31c0 .29 0 .45-.06.73 0 .12-.05.2-.09.2s-.06 0-.07-.13a.76.76 0 0 0-.19-.5.93.93 0 0 0-.59-.19h-1.53c-.06 0-.09 0-.09.11V42c0 .06 0 .09.07.09h1.39c.53 0 .66 0 .8-.19s.07-.1.11-.1 0 0 0 .08 0 .23-.08.56 0 .54 0 .69 0 .17-.07.17-.07-.07-.08-.17a.59.59 0 0 0-.57-.64h-1.51c-.17 0-.07 0-.07.09v2.85c0 .44.14.67.41.7h.41c.09 0 .12 0 .12.07s-.05.07-.16.07h-2.21c-.11 0-.16 0-.16-.08s0 0 .11-.06h.26c.21-.06.28-.21.31-.65s0-1.13 0-2.07Zm18.01 1.78c0 1.47 0 2.11.22 2.29s.42.23 1.2.23c.53 0 1 0 1.21-.3a1.39 1.39 0 0 0 .26-.6c0-.08 0-.13.09-.13s.06 0 .06.15a6.38 6.38 0 0 1-.15 1c-.07.23-.1.27-.63.27-.86 0-1.71-.06-2.68-.06h-1c-.11 0-.16 0-.16-.08s0-.06.08-.06a1.54 1.54 0 0 0 .3 0c.2 0 .25-.26.29-.55s0-1.21 0-2.17v-3.93c0-.32-.1-.5-.43-.57a1.87 1.87 0 0 0-.34 0s-.08 0-.08-.06.05-.08.16-.08h2.21c.11 0 .16 0 .16.08s0 .06-.08.06h-.33c-.29 0-.37.22-.39.57s0 .6 0 2.16Zm8.96-1.78v-2.16c0-.32-.12-.51-.34-.56a1.31 1.31 0 0 0-.31 0s-.08 0-.08-.06.05-.08.16-.08h2c.11 0 .16 0 .16.08s0 .06-.08.06h-.25c-.27 0-.35.22-.37.57s0 .6 0 2.16v3.93c0 .42.09.51.39.55h.41c.09 0 .12 0 .12.06s0 .08-.15.08h-2.24c-.11 0-.16 0-.16-.08s0-.06.11-.06h.26c.2 0 .26-.27.3-.56s.05-1.21.05-2.17Zm8.4 0v-2.16c0-.32-.1-.5-.43-.57h-.25c-.09 0-.17 0-.17-.07s0-.08.16-.08h3.59a1.35 1.35 0 0 0 .49-.06h.09s.06 0 .06.09 0 .19-.06.31c0 .29 0 .45-.06.73 0 .12-.05.2-.09.2s-.06 0-.07-.13a.76.76 0 0 0-.19-.5.93.93 0 0 0-.59-.19h-1.53c-.06 0-.09 0-.09.11V42c0 .06 0 .09.07.09H171c.53 0 .66 0 .8-.19s.07-.1.11-.1.05 0 .05.08-.05.23-.08.56 0 .54 0 .69 0 .17-.07.17-.07-.07-.08-.17a.59.59 0 0 0-.57-.64h-1.51c-.17 0-.07 0-.07.09v2.85c0 .44.14.67.41.7h.41c.09 0 .12 0 .12.07s-.05.07-.16.07h-2.25c-.11 0-.16 0-.16-.08s0 0 .11-.06h.26c.21-.06.28-.21.31-.65s0-1.13 0-2.07Zm9.82 0v-2.16c0-.32-.1-.5-.43-.57a2.36 2.36 0 0 0-.29 0c-.07 0-.13 0-.13-.06s.05-.08.16-.08h3.42a1.67 1.67 0 0 0 .46-.06.24.24 0 0 1 .11 0s0 0 0 .09a4.35 4.35 0 0 0-.08.47v.6c0 .1 0 .17-.08.17s-.08 0-.08-.13a1 1 0 0 0 0-.33c-.07-.23-.28-.33-.72-.37h-1.37c-.11 0-.06 0-.06.1V42c0 .07 0 .1.06.1h1.59c.23 0 .4 0 .5-.17s.08-.1.12-.1.05 0 .05.08-.05.23-.08.56 0 .54 0 .68 0 .15-.07.15-.07-.08-.07-.16a.9.9 0 0 0 0-.28c0-.15-.16-.29-.52-.33s-1.26 0-1.43 0a.06.06 0 0 0-.07.07v2.59c0 .41.08.63.33.73a2.42 2.42 0 0 0 .83.09 3.32 3.32 0 0 0 .9-.09c.32-.1.43-.31.51-.74 0-.11 0-.15.09-.15s.06.08.06.15-.08.76-.13 1-.15.26-.54.26h-3.45c-.11 0-.16 0-.16-.08s.05 0 .11-.06a1.29 1.29 0 0 0 .23 0c.21 0 .34-.19.36-.94v-1.79Z" style="isolation:isolate"></path>
					</svg>